# xmcd
#
# Track frame offsets:
#	150
#	12725
#	27034
#	47291
#	61857
#	80095
#	97739
#	115126
#	126196
#	138769
#	154062
#	167887
#	180818
#	193855
#	204415
#	219080
#	234468
#
# Disc length: 3314 seconds
#
# Revision: 1
# Processed by: cddbd v1.5.2PL0 Copyright (c) Steve Scherf et al.
# Submitted via: audiograbber 1.83.01
#
DISCID=d20cf011
DTITLE=Gérard Caillieux - Vol 1 - Au bistrot
DYEAR=1900
DGENRE=
TTITLE0=Au bistrot !
TTITLE1=Elégante
TTITLE2=Un truc qui craint pas
TTITLE3=Pleure
TTITLE4=Eponine et l'autre
TTITLE5=L'alchimiste
TTITLE6=De la peine à Guignol
TTITLE7=Son "4 heures"
TTITLE8=Bigophone-bouffe
TTITLE9=Cache-tampon
TTITLE10=Ca sent l'sapin
TTITLE11=Venus en balance
TTITLE12=Fan de movies
TTITLE13=Demoiselle Isabeau
TTITLE14=Fille qui ferait des bulles
TTITLE15=Malheureux
TTITLE16=Le bug de l'an 2000
EXTD=
EXTT0=
EXTT1=
EXTT2=
EXTT3=
EXTT4=
EXTT5=
EXTT6=
EXTT7=
EXTT8=
EXTT9=
EXTT10=
EXTT11=
EXTT12=
EXTT13=
EXTT14=
EXTT15=
EXTT16=
PLAYORDER=
